<?xml version="1.0" standalone="no"?>
<!DOCTYPE svg PUBLIC "-//W3C//DTD SVG 20010904//EN"
 "http://www.w3.org/TR/2001/REC-SVG-20010904/DTD/svg10.dtd">
<svg version="1.0" xmlns="http://www.w3.org/2000/svg"
 width="1920.000000pt" height="922.000000pt" viewBox="0 0 1920.000000 922.000000"
 preserveAspectRatio="xMidYMid meet">

<g transform="translate(0.000000,922.000000) scale(0.100000,-0.100000)"
fill="#000000" stroke="none">
<path d="M0 4610 l0 -4610 9600 0 9600 0 0 4610 0 4610 -9600 0 -9600 0 0
-4610z m13688 1488 c23 -51 79 -178 125 -283 128 -288 230 -517 387 -870 79
-176 160 -358 180 -405 20 -47 92 -208 158 -358 67 -149 122 -277 122 -282 0
-7 -66 -9 -191 -8 l-191 3 -85 215 c-46 118 -91 229 -99 247 -8 17 -14 36 -14
42 0 8 -126 11 -438 11 l-439 0 -63 -162 c-35 -90 -73 -185 -85 -213 -12 -27
-30 -71 -40 -97 l-18 -48 -193 0 c-107 0 -194 4 -194 8 0 4 4 12 9 18 5 5 18
32 29 59 21 52 86 200 141 318 17 37 31 69 31 71 0 2 17 42 39 88 21 45 55
121 76 168 20 47 54 123 75 170 61 134 411 921 522 1173 56 125 104 227 108
227 3 0 25 -42 48 -92z"/>
<path d="M13578 5292 c-32 -75 -83 -198 -114 -272 -31 -74 -71 -170 -89 -212
l-33 -78 299 0 298 0 -34 80 c-19 43 -84 201 -146 350 -62 148 -115 270 -118
270 -3 0 -32 -62 -63 -138z"/>
</g>
</svg>
